<?xml version="1.0" encoding="UTF-8" standalone="no"?>
<!-- Uploaded to: SVG Repo, www.svgrepo.com, Generator: SVG Repo Mixer Tools -->

<svg
   width="800px"
   height="800px"
   viewBox="0 0 512 512"
   aria-hidden="true"
   role="img"
   class="iconify iconify--fxemoji"
   preserveAspectRatio="xMidYMid meet"
   version="1.1"
   id="svg10"
   sodipodi:docname="EYES.svg"
   inkscape:version="1.3.2 (091e20e, 2023-11-25, custom)"
   xmlns:inkscape="http://www.inkscape.org/namespaces/inkscape"
   xmlns:sodipodi="http://sodipodi.sourceforge.net/DTD/sodipodi-0.dtd"
   xmlns="http://www.w3.org/2000/svg"
   xmlns:svg="http://www.w3.org/2000/svg">
  <defs
     id="defs10" />
  <sodipodi:namedview
     id="namedview10"
     pagecolor="#ffffff"
     bordercolor="#000000"
     borderopacity="0.25"
     inkscape:showpageshadow="2"
     inkscape:pageopacity="0.0"
     inkscape:pagecheckerboard="0"
     inkscape:deskcolor="#d1d1d1"
     inkscape:zoom="0.97125"
     inkscape:cx="400"
     inkscape:cy="400"
     inkscape:window-width="1920"
     inkscape:window-height="991"
     inkscape:window-x="-9"
     inkscape:window-y="-9"
     inkscape:window-maximized="1"
     inkscape:current-layer="svg10" />
  <path
     fill="#e5e4df"
     d="m 114.16422,193.79241 c 43.75848,0 79.24016,32.38356 79.24016,72.32124 0,39.93767 -35.48168,72.32123 -79.24016,72.32123 -43.758472,0 -79.240153,-32.32165 -79.240153,-72.25932 0,-39.99959 35.481681,-72.38315 79.240153,-72.38315 z"
     id="path1"
     style="stroke-width:0.648131" />
  <path
     fill="#00b1ff"
     d="m 114.16422,216.39279 c 30.12212,0 54.47762,22.29079 54.47762,49.72086 0,27.43006 -24.42334,49.72085 -54.47762,49.72085 -30.054272,0 -54.477604,-22.29079 -54.477604,-49.72085 0,-27.43007 24.423332,-49.72086 54.477604,-49.72086 z"
     id="path2"
     style="stroke-width:0.648131" />
  <path
     fill="#2b3b47"
     d="m 114.16422,238.99319 c 16.41791,0 29.71506,12.13609 29.71506,27.12046 0,14.98436 -13.29715,27.12046 -29.71506,27.12046 -16.417912,0 -29.715052,-12.1361 -29.715052,-27.05855 0,-14.92244 13.29714,-27.18237 29.715052,-27.18237 z"
     id="path3"
     style="stroke-width:0.648131" />
  <path
     fill="#d4edf6"
     d="m 136.48443,238.99319 c 6.85212,0 12.4152,5.07734 12.4152,11.33115 0,6.2538 -5.56308,11.33115 -12.4152,11.33115 -6.8521,0 -12.41518,-5.07735 -12.41518,-11.33115 0,-6.25381 5.56308,-11.33115 12.41518,-11.33115 z"
     id="path4"
     style="stroke-width:0.648131" />
  <path
     fill="#d6dbde"
     d="m 143.06517,259.85984 c -2.03528,-7.67794 -7.59837,-14.1175 -15.06106,-17.7088 -2.37448,2.04332 -3.86702,4.95351 -3.86702,8.1733 0,6.2538 5.56308,11.33115 12.4152,11.33115 2.37448,0 4.61329,-0.6811 6.51288,-1.79565 z"
     id="path5"
     style="stroke-width:0.648131" />
  <path
     fill="#e5e4df"
     d="m 398.06525,191.81557 c 41.39322,0 74.95702,32.23604 74.95702,71.99176 0,39.75573 -33.5638,71.99177 -74.95702,71.99177 -41.39321,0 -74.95701,-32.1744 -74.95701,-71.93013 0,-39.81736 33.5638,-72.0534 74.95701,-72.0534 z"
     id="path6"
     style="stroke-width:0.628933" />
  <path
     fill="#00b1ff"
     d="m 398.06525,214.313 c 28.49394,0 51.53295,22.18924 51.53295,49.49433 0,27.3051 -23.10319,49.49434 -51.53295,49.49434 -28.42975,0 -51.53294,-22.18924 -51.53294,-49.49434 0,-27.30509 23.10319,-49.49433 51.53294,-49.49433 z"
     id="path7"
     style="stroke-width:0.628933" />
  <path
     fill="#2b3b47"
     d="m 398.06525,236.81042 c 15.53048,0 28.10888,12.08081 28.10888,26.99691 0,14.9161 -12.5784,26.99691 -28.10888,26.99691 -15.53047,0 -28.10888,-12.08081 -28.10888,-26.99691 0,-14.9161 12.57841,-26.99691 28.10888,-26.99691 z"
     id="path8"
     style="stroke-width:0.628933" />
  <path
     fill="#d4edf6"
     d="m 419.179,236.81042 c 6.48173,0 11.74412,5.05422 11.74412,11.27953 0,6.22532 -5.26239,11.27953 -11.74412,11.27953 -6.48173,0 -11.74412,-5.05421 -11.74412,-11.27953 0,-6.22531 5.26239,-11.27953 11.74412,-11.27953 z"
     id="path9"
     style="stroke-width:0.628933" />
  <path
     fill="#d6dbde"
     d="m 425.40403,257.58202 c -1.92527,-7.64296 -7.18766,-14.05319 -14.24697,-17.62812 -2.24614,2.03401 -3.658,4.93094 -3.658,8.13605 0,6.22532 5.26239,11.27953 11.74412,11.27953 2.18197,0 4.36393,-0.678 6.16085,-1.78746 z"
     id="path10"
     style="stroke-width:0.628933" />
  <path
     style="fill:#890628;stroke-width:2.28993"
     d="m 200.08856,482.57429 c 0,-33.09625 24.7055,-59.95189 55.15689,-59.95189 30.45139,0 55.15689,26.85324 55.15689,59.95189 0,33.09624 -24.7055,29.37432 -55.15689,29.37432 -30.45139,0 -55.15689,3.70523 -55.15689,-29.37432 z"
     id="path20" />
</svg>
