<?xml version="1.0" encoding="UTF-8" standalone="no"?>
<!-- Uploaded to: SVG Repo, www.svgrepo.com, Generator: SVG Repo Mixer Tools -->

<svg
   height="800px"
   width="800px"
   version="1.1"
   id="Layer_1"
   viewBox="0 0 504.123 504.123"
   xml:space="preserve"
   sodipodi:docname="thor-noEyes.svg"
   inkscape:version="1.3.2 (091e20e, 2023-11-25, custom)"
   xmlns:inkscape="http://www.inkscape.org/namespaces/inkscape"
   xmlns:sodipodi="http://sodipodi.sourceforge.net/DTD/sodipodi-0.dtd"
   xmlns="http://www.w3.org/2000/svg"
   xmlns:svg="http://www.w3.org/2000/svg"><defs
   id="defs35" /><sodipodi:namedview
   id="namedview35"
   pagecolor="#ffffff"
   bordercolor="#000000"
   borderopacity="0.25"
   inkscape:showpageshadow="2"
   inkscape:pageopacity="0.0"
   inkscape:pagecheckerboard="0"
   inkscape:deskcolor="#d1d1d1"
   inkscape:zoom="0.97125"
   inkscape:cx="400"
   inkscape:cy="400"
   inkscape:window-width="1920"
   inkscape:window-height="991"
   inkscape:window-x="-9"
   inkscape:window-y="-9"
   inkscape:window-maximized="1"
   inkscape:current-layer="Layer_1" />
<path
   style="fill:#890628;"
   d="M172.797,203.485c0,0-7.877,18.708-81.723,31.508s-82.708,40.369-56.123,54.154  s-34.462,5.908,0,44.308s87.631,13.785,82.708,34.462c-4.923,20.677,71.877,45.292,100.431,17.723  c28.554-27.569,118.154-20.677,119.138,2.954s48.246-169.354-67.938-180.185C153.105,197.577,172.797,203.485,172.797,203.485z"
   id="path1" />
<g
   id="g3">
	<path
   style="fill:#F9D49D;"
   d="M218.113,203.768c10.027,11.28,3.663,33.304-14.218,49.223   c-17.881,15.896-114.018,85.024-124.062,73.767c-10.012-11.296,69.892-98.714,87.773-114.609   C185.471,196.254,208.086,192.496,218.113,203.768z"
   id="path2" />
	<path
   style="fill:#F9D49D;"
   d="M240.082,203.768c-10.027,11.28-3.663,33.304,14.218,49.223   c17.881,15.896,114.018,85.024,124.062,73.767c10.012-11.296-69.892-98.714-87.773-114.609   C272.732,196.254,250.117,192.496,240.082,203.768z"
   id="path3" />
</g>
<g
   id="g5">
	<path
   style="fill:#0265B7;"
   d="M323.609,361.913c0,19.503-15.817,124.668-35.336,124.668c-19.495,0-35.304-105.173-35.304-124.668   c0-19.495,15.817-35.32,35.304-35.32C307.792,326.593,323.609,342.418,323.609,361.913z"
   id="path4" />
	<path
   style="fill:#0265B7;"
   d="M205.258,361.913c0,19.503-15.817,124.668-35.336,124.668c-19.495,0-35.304-105.173-35.304-124.668   c0-19.495,15.817-35.32,35.304-35.32C189.441,326.593,205.258,342.418,205.258,361.913z"
   id="path5" />
</g>
<path
   d="M328.744,315.242c0,126.33-44.599,84.259-99.643,84.259c-55.028,0-99.643,42.071-99.643-84.259  c0-72.231,44.631-130.781,99.643-130.781C284.13,184.47,328.744,243.019,328.744,315.242z"
   id="path6" />
<path
   style="fill:#890628;"
   d="M159.146,222.169c20.173,8.302,44.15,12.524,69.971,12.524c25.797,0,49.782-4.222,69.939-12.516  c-17.999-23.3-42.693-37.707-69.955-37.707S177.145,198.869,159.146,222.169z"
   id="path7" />
<g
   id="g9">
	<path
   style="fill:#EFC206;"
   d="M142.944,422.085c5.506,27.301,13.32,54.705,22.166,62.354h9.602   c8.862-7.648,16.691-35.052,22.181-62.354H142.944z"
   id="path8" />
	<path
   style="fill:#EFC206;"
   d="M261.302,422.085c5.506,27.301,13.32,54.705,22.166,62.354h9.602   c8.862-7.648,16.691-35.052,22.181-62.354H261.302z"
   id="path9" />
</g>
<path
   style="fill:#FFD527;"
   d="M209.669,487.219c0,14.935-17.802,16.904-39.739,16.904s-39.739-1.961-39.739-16.904  c0-14.943,17.802-35.509,39.739-35.509S209.669,472.277,209.669,487.219z"
   id="path10" />
<path
   style="fill:#EDB107;"
   d="M209.669,487.219c0,14.935-17.802,16.904-39.739,16.904s-39.739-1.961-39.739-16.904"
   id="path11" />
<path
   style="fill:#FFD527;"
   d="M328.028,487.219c0,14.935-17.802,16.904-39.739,16.904s-39.739-1.961-39.739-16.904  c0-14.943,17.802-35.509,39.739-35.509S328.028,472.277,328.028,487.219z"
   id="path12" />
<path
   style="fill:#EDB107;"
   d="M328.028,487.219c0,14.935-17.802,16.904-39.739,16.904s-39.739-1.961-39.739-16.904"
   id="path13" />
<path
   style="fill:#F9D49D;"
   d="M358.054,124.258c0,63.008-57.738,94.681-128.937,94.681c-71.215,0-128.969-31.673-128.969-94.681  C100.148,61.235,157.902,0,229.117,0C300.317,0,358.054,61.235,358.054,124.258z"
   id="path14" />








<g
   id="g22">
	<path
   style="fill:#EFC206;"
   d="M134.145,73.027c0,0-1.15,2.04-2.828,5.537c-7.294,15.202-24.678,57.911-3.08,81.109l-16.738-8.862   c0,0,12.8,27.569,12.8,48.246c0,0-15.754-18.708-27.569-24.615l2.954,17.723c0,0-33.477-36.431-11.815-77.785l-23.631,12.8   c0,0,20.677-35.446,34.462-40.369c13.785-4.923,15.754-16.738,15.754-16.738L134.145,73.027z"
   id="path21" />
	<path
   style="fill:#EFC206;"
   d="M324.089,73.027c0,0,1.15,2.04,2.828,5.537c7.294,15.202,24.678,57.911,3.08,81.109l16.738-8.862   c0,0-12.8,27.569-12.8,48.246c0,0,15.754-18.708,27.569-24.615l-2.954,17.723c0,0,33.477-36.431,11.815-77.785l23.631,12.8   c0,0-20.677-35.446-34.462-40.369c-13.785-4.923-15.754-16.738-15.754-16.738L324.089,73.027z"
   id="path22" />
</g>
<path
   style="fill:#9FAAAD;"
   d="M110.688,77.454h236.828C327.728,34.028,282.176,0,229.117,0  C176.042,0,130.467,34.028,110.688,77.454z"
   id="path23" />
<path
   style="fill:#AFBABC;"
   d="M229.117,0c-42.047,0-79.321,21.394-102.865,51.854h205.69C308.406,21.394,271.148,0,229.117,0z"
   id="path24" />
<path
   style="fill:#D8D7B6;"
   d="M130.057,70.239c0,0,0.504-1.126,1.016-3.017c2.127-7.956,4.23-29.349-31.862-35.714  c-44.646-7.877-40.046-15.754-40.046-15.754s-4.6,24.946,30.846,30.854c0,0-20.338,2.631-24.938-0.646  c0,0,10.492,20.33,32.815,13.115l-6.554,9.846c0,0,7.215,6.577,19.031-3.269c0,0,3.938,12.304,11.815,10.335  c0,0,4.923-1.15,6.231-1.646C129.734,73.846,130.057,70.239,130.057,70.239z"
   id="path25" />
<path
   style="fill:#C1BFA3;"
   d="M89.688,39.708c-11.311-1.993-19.432-3.994-25.309-5.853c4.34,5.404,12.012,10.484,25.632,12.753  c0,0-20.338,2.631-24.938-0.646c0,0,1.465,2.82,4.458,5.994c3.151,1.158,6.751,2.15,10.973,2.851c0,0-3.033,0.386-7.003,0.677  c5.419,4.057,13.477,7.121,24.387,3.592l-6.554,9.846c0,0,7.215,6.577,19.031-3.269c0,0,3.694,11.288,10.996,10.366  c0.079-0.228,0.126-0.347,0.181-0.599C123.669,67.466,125.78,46.08,89.688,39.708z"
   id="path26" />
<path
   style="fill:#D8D7B6;"
   d="M328.146,70.239c0,0-0.504-1.126-1.016-3.017c-2.127-7.956-4.23-29.349,31.862-35.714  c44.646-7.877,40.046-15.754,40.046-15.754s4.6,24.946-30.846,30.854c0,0,20.338,2.631,24.938-0.646c0,0-10.492,20.33-32.815,13.115  l6.554,9.846c0,0-7.215,6.577-19.031-3.269c0,0-3.938,12.304-11.815,10.335c0,0-4.923-1.15-6.231-1.646  C328.469,73.846,328.146,70.239,328.146,70.239z"
   id="path27" />
<path
   style="fill:#C1BFA3;"
   d="M368.515,39.708c11.311-1.993,19.432-3.994,25.309-5.853c-4.34,5.404-12.012,10.484-25.632,12.753  c0,0,20.338,2.631,24.938-0.646c0,0-1.465,2.82-4.458,5.994c-3.151,1.158-6.75,2.15-10.973,2.851c0,0,3.033,0.386,7.003,0.677  c-5.419,4.057-13.477,7.121-24.387,3.592l6.554,9.846c0,0-7.215,6.577-19.031-3.269c0,0-3.694,11.288-10.996,10.366  c-0.079-0.228-0.126-0.347-0.181-0.599C334.534,67.466,332.423,46.08,368.515,39.708z"
   id="path28" />
<g
   id="g33">
	<circle
   style="fill:#EDB107;"
   cx="193.687"
   cy="262.892"
   r="18.054"
   id="circle28" />
	<circle
   style="fill:#EDB107;"
   cx="193.687"
   cy="308.838"
   r="18.054"
   id="circle29" />
	<circle
   style="fill:#EDB107;"
   cx="193.687"
   cy="354.784"
   r="18.054"
   id="circle30" />
	<circle
   style="fill:#EDB107;"
   cx="264.579"
   cy="262.892"
   r="18.054"
   id="circle31" />
	<circle
   style="fill:#EDB107;"
   cx="264.579"
   cy="308.838"
   r="18.054"
   id="circle32" />
	<circle
   style="fill:#EDB107;"
   cx="264.579"
   cy="354.784"
   r="18.054"
   id="circle33" />
</g>
<path
   style="fill:#828C8E;"
   d="M465.504,271.132c-1.906,5.002-7.507,7.507-12.509,5.6l-103.274-39.463  c-5.002-1.906-7.507-7.507-5.6-12.509l16.707-43.725c1.906-5.002,7.507-7.491,12.509-5.585l103.274,39.448  c5.002,1.906,7.507,7.507,5.6,12.509L465.504,271.132z"
   id="path33" />
<path
   style="fill:#9FAAAD;"
   d="M476.61,214.898l-103.274-39.448c-5.002-1.906-10.602,0.583-12.509,5.585l-4.033,10.555  c-1.906,5.002,0.599,10.602,5.585,12.509l103.29,39.448c4.986,1.906,10.587-0.583,12.493-5.585l4.049-10.555  C484.117,222.405,481.612,216.804,476.61,214.898z"
   id="path34" />
<path
   style="fill:#5B441A;"
   d="M366.774,365.592c-1.276,3.34-5.018,5.002-8.342,3.726l0,0c-3.34-1.26-5.002-4.986-3.726-8.326  l45.505-119.123c1.276-3.324,5.002-5.002,8.326-3.726l0,0c3.34,1.276,5.018,5.002,3.742,8.342L366.774,365.592z"
   id="path35" />
</svg>
